<?xml version="1.0" encoding="UTF-8"?>
<!DOCTYPE svg PUBLIC "-//W3C//DTD SVG 1.1//EN" "http://www.w3.org/Graphics/SVG/1.1/DTD/svg11.dtd">
<!-- Creator: CorelDRAW -->
<svg xmlns="http://www.w3.org/2000/svg" xml:space="preserve" width="2048px" height="2048px" style="shape-rendering:geometricPrecision; text-rendering:geometricPrecision; image-rendering:optimizeQuality; fill-rule:evenodd; clip-rule:evenodd"
viewBox="0 0 2048 2048"
 xmlns:xlink="http://www.w3.org/1999/xlink">
 <defs>
  <style type="text/css">
   <![CDATA[
    .fil2 {fill:none}
    .fil1 {fill:#0A2463}
    .fil0 {fill:#0A2463;fill-rule:nonzero}
   ]]>
  </style>
 </defs>
 <g id="Layer_x0020_1">
  <metadata id="CorelCorpID_0Corel-Layer"/>
  <g id="_257327720">
   <g>
    <path id="_257327864" class="fil0" d="M810.088 1396.71c10.9311,-14.6457 31.6642,-17.6563 46.3087,-6.72638 14.6457,10.9299 17.6563,31.6642 6.72638,46.3087l-133.026 178.221c-5.38701,7.2189 -13.1563,11.6079 -21.404,12.8976l-138.43 31.1173c-17.7886,4.0004 -35.4532,-7.17638 -39.4536,-24.965 -4.0004,-17.7886 7.17756,-35.4532 24.965,-39.4536l128.539 -28.8945 125.775 -168.506z"/>
    <path id="_257327768" class="fil0" d="M710.013 1555.88c15.7878,9.21615 21.1158,29.4862 11.8996,45.2741 -9.21497,15.7878 -29.4862,21.1146 -45.2729,11.8996l-60.3686 -35.2855c-15.7878,-9.21615 -21.1158,-29.4862 -11.8996,-45.2741 9.21497,-15.7878 29.4862,-21.1158 45.2741,-11.8996l60.3674 35.2855z"/>
    <path id="_257327744" class="fil0" d="M670.027 1585.59c7.85788,-16.4303 27.5504,-23.3799 43.9807,-15.5221 16.4303,7.85788 23.3799,27.5504 15.5221,43.9807l-27.7961 58.1008c-7.8567,16.4303 -27.5492,23.3799 -43.9796,15.5221 -16.4315,-7.85788 -23.3811,-27.5504 -15.5232,-43.9807l27.7961 -58.1008z"/>
   </g>
   <path id="_257327672" class="fil1" d="M1302.42 1019.99c-53.3162,-58.4563 -112.747,-112.629 -172.648,-164.25 -48.1666,-41.5099 -97.4056,-81.7253 -146.804,-121.747l0.0637796 -0.0791339 -0.0968505 -0.0767717 0.153543 -0.18189 -21.0248 -16.7114c-13.7162,-10.9028 -27.4358,-21.802 -41.2205,-32.6185 -23.2536,-18.248 -46.591,-36.5162 -68.6823,-56.1721 -33.6142,-29.9067 -61.7847,-61.4788 -87.006,-98.778 -43.9548,-78.7548 -101.273,-137.929 -190.219,-163.943 -9.3567,-2.73662 -18.9059,-4.80709 -28.5473,-6.24686 -9.22324,-1.37717 -18.5433,-2.08465 -27.8693,-2.08465 -41.7485,0 -79.8851,15.0095 -112.541,40.5272 -31.278,24.4394 -69.3686,69.8209 -79.682,109.136 -0.103937,0.39567 -0.19252,0.78189 -0.312992,1.17165 -8.95394,27.1559 -19.3193,52.793 -36.5256,75.8339l-33.4595 44.804 97.0713 -6.09922c3.04134,-0.190158 6.41812,0.772442 7.99725,3.58347l45.6898 81.3804c5.00433,8.91261 10.7988,17.0752 16.2484,25.6736 2.58071,4.07126 6.09449,9.74174 7.11615,14.5087 0.251575,1.1752 0.349607,2.32087 0.243307,3.51851 -9.5941,109.081 -2.86536,223.237 54.3733,319.555 55.0252,92.5926 167.816,163.673 265.044,208.323 -0.146457,-5.32087 -0.216142,-10.5874 -0.216142,-15.7784 0,-28.3772 2.0315,-59.3209 8.37048,-87.0379 0.883465,-3.86221 4.73268,-6.26812 8.59253,-5.38465 3.86457,0.883465 6.27284,4.73504 5.38937,8.59725 -6.10158,26.6764 -7.86142,56.5122 -7.86142,83.8253 0,39.574 4.01457,83.1674 15.4583,121.015 7.07835,23.4059 19.5414,57.3213 46.4457,63.4548 4.37363,0.998032 5.13189,0.77126 7.60867,0.77126 1.24488,0 2.23229,0.148819 5.57008,-0.422835 28.363,-4.85315 41.2122,-41.3622 48.4111,-65.2902 4.82717,-16.0477 8.41654,-33.2303 10.9583,-50.7272 0.00236221,-0.0732284 0.00590552,-0.146457 0.0106299,-0.219685 0.0295276,-0.464174 0.102756,-0.915355 0.216142,-1.35118 3.38386,-23.8984 4.83071,-48.3355 4.83071,-71.217 0,-19.5047 -0.957875,-39.913 -4.25079,-59.1591 -0.672048,-3.92244 1.96654,-7.6252 5.88662,-8.29489 3.93307,-0.670867 7.63583,1.96772 8.30788,5.89725 3.42992,20.0433 4.54725,41.2429 4.54725,61.5567 0,21.2244 -1.26732,43.9122 -4.11851,66.3201 57.7524,3.26811 117.059,2.18858 174.787,1.17992 20.0268,-0.349607 40.0548,-0.77126 60.0815,-1.19764 38.791,-0.823229 77.7355,-1.88622 116.53,-1.88622 28.989,0 63.489,7.7693 91.5969,14.6398 40.8803,9.9945 81.4477,22.3299 121.562,35.0433 26.9799,8.55237 53.8701,17.387 80.7591,26.2264 35.8618,11.7898 71.941,23.9398 108.242,34.2709l7.00749 1.9937 117.494 -32.7473 -43.1197 -31.4788c-57.4536,-41.9445 -119.075,-77.1745 -180.783,-112.348 -31.7941,-18.1217 -63.5138,-36.2788 -94.741,-55.3335l0.205512 -0.341339 -22.3358 -13.3075 -1.86851 -1.10197c-1.87087,-1.10669 -4.89331,-3.20433 -5.53465,-5.45906 -1.01221,-3.55512 0.837402,-7.34056 4.28622,-8.68229l55.8567 -21.7477 -54.1394 -25.7268c-14.9728,-7.1126 -29.6079,-14.9386 -43.8189,-23.4732 -38.2819,-22.989 -73.4705,-51.0874 -103.585,-84.104zm-712.613 -471.897c0,12.9047 -5.25237,24.6083 -13.7374,33.0969l-0.0330709 0.0318898 0.0330709 0.0330709c-8.48623,8.48623 -20.2134,13.7374 -33.1618,13.7374 -12.9484,0 -24.6744,-5.25119 -33.1607,-13.7374 -0.360236,-0.360236 -0.700394,-0.734646 -1.02047,-1.11969 -7.88268,-8.39056 -12.7169,-19.663 -12.7169,-32.0422 0,-12.8728 5.24646,-24.5764 13.7374,-33.0945l0.0330709 -0.0318898 0.0318898 -0.0330709 0.0507874 -0.0496063c8.51457,-8.46142 20.1957,-13.689 33.0449,-13.689 12.8882,0 24.6059,5.26182 33.1288,13.7717l0.0330709 -0.0330709c8.48505,8.48505 13.7374,20.2122 13.7374,33.1595z"/>
  </g>
 </g>
 <rect class="fil2" width="2048" height="2048"/>
</svg>
